<?xml version="1.0" encoding="UTF-8" standalone="no"?>
<svg
   xmlns:dc="http://purl.org/dc/elements/1.1/"
   xmlns:cc="http://creativecommons.org/ns#"
   xmlns:rdf="http://www.w3.org/1999/02/22-rdf-syntax-ns#"
   xmlns:svg="http://www.w3.org/2000/svg"
   xmlns="http://www.w3.org/2000/svg"
   xmlns:sodipodi="http://sodipodi.sourceforge.net/DTD/sodipodi-0.dtd"
   xmlns:inkscape="http://www.inkscape.org/namespaces/inkscape"
   height="108"
   viewBox="0 0 108 108"
   width="108"
   version="1.1"
   id="svg975"
   sodipodi:docname="ic_launcher_foreground.xml.svg"
   inkscape:version="0.92.5 (2060ec1f9f, 2020-04-08)">
  <metadata
     id="metadata981">
    <rdf:RDF>
      <cc:Work
         rdf:about="">
        <dc:format>image/svg+xml</dc:format>
        <dc:type
           rdf:resource="http://purl.org/dc/dcmitype/StillImage" />
      </cc:Work>
    </rdf:RDF>
  </metadata>
  <defs
     id="defs979" />
  <sodipodi:namedview
     pagecolor="#ffffff"
     bordercolor="#666666"
     borderopacity="1"
     objecttolerance="10"
     gridtolerance="10"
     guidetolerance="10"
     inkscape:pageopacity="0"
     inkscape:pageshadow="2"
     inkscape:window-width="1920"
     inkscape:window-height="1053"
     id="namedview977"
     showgrid="false"
     inkscape:zoom="7.962963"
     inkscape:cx="54"
     inkscape:cy="54"
     inkscape:window-x="-9"
     inkscape:window-y="-9"
     inkscape:window-maximized="1"
     inkscape:current-layer="svg975" />
  <g
     id="g1055"
     transform="translate(7.3670366,6.8499634)">
    <path
       d="m 39.143,37.636 c -2.271,0 -4.11,1.55 -4.719,3.625 -0.693,-0.364 -1.445,-0.625 -2.281,-0.625 -2.76,0 -5,2.24 -5,5 0,0.579 0.163,1.108 0.344,1.625 -1.373,0.771 -2.344,2.189 -2.344,3.875 0,2.484 2.016,4.5 4.5,4.5 0.177,0 18.823,0 19,0 2.484,0 4.5,-2.016 4.5,-4.5 0,-1.686 -0.97,-3.104 -2.344,-3.875 0.181,-0.517 0.344,-1.046 0.344,-1.625 0,-2.76 -2.24,-5 -5,-5 -0.837,0 -1.588,0.261 -2.281,0.625 -0.609,-2.075 -2.448,-3.625 -4.719,-3.625 z"
       id="path899"
       inkscape:connector-curvature="0"
       style="fill:#c4c5c2;stroke:#888a85;stroke-width:1;stroke-linecap:butt;stroke-linejoin:miter" />
    <path
       d="m 39.143,38.136 c -2.19,0 -3.724,1.336 -4.396,3.844 -0.668,-0.344 -1.548,-0.833 -2.354,-0.833 -2.717,0 -4.755,1.939 -4.755,4.546 0,0.547 0.267,1.333 0.442,1.822 -1.324,0.728 -2.437,1.89 -2.437,3.373 0,2.346 1.546,4.25 4.339,4.25 0.171,0 18.151,0 18.321,0 2.771,0 4.339,-1.904 4.339,-4.25 0,-1.592 -1.112,-2.667 -2.437,-3.395 0.175,-0.489 0.464,-1.253 0.464,-1.8 0,-2.607 -2.116,-4.568 -4.777,-4.568 -0.807,0 -1.642,0.49 -2.31,0.833 -0.648,-2.422 -2.249,-3.822 -4.439,-3.822 z"
       stroke="#00000000"
       id="path901"
       inkscape:connector-curvature="0"
       style="fill:none" />
    <path
       d="m 42.642,42.638 c 0,1.933 -1.567,3.5 -3.5,3.5 -1.933,0 -3.5,-1.567 -3.5,-3.5 0,-1.933 1.567,-3.5 3.5,-3.5 1.933,0 3.5,1.567 3.5,3.5 z"
       stroke="#00000000"
       id="path903"
       inkscape:connector-curvature="0"
       style="fill:#c4c5c2" />
    <path
       d="m 42.642,42.638 c 0,1.933 -1.567,3.5 -3.5,3.5 -1.933,0 -3.5,-1.567 -3.5,-3.5 0,-1.933 1.567,-3.5 3.5,-3.5 1.933,0 3.5,1.567 3.5,3.5 z"
       stroke="#00000000"
       id="path905"
       inkscape:connector-curvature="0"
       style="fill:none" />
    <path
       d="m 29.643,45.136 h 20 v 9 h -20 z"
       stroke="#00000000"
       id="path907"
       inkscape:connector-curvature="0"
       style="fill:#c4c5c2" />
    <path
       d="m 32.643,51.136 c 0,1.657 -1.343,3 -3,3 -1.657,0 -3,-1.343 -3,-3 0,-1.657 1.343,-3 3,-3 1.657,0 3,1.343 3,3 z"
       stroke="#00000000"
       id="path909"
       inkscape:connector-curvature="0"
       style="fill:#c4c5c2" />
    <path
       d="m 49.642,45.637 c 0,1.933 -1.567,3.5 -3.5,3.5 -1.933,0 -3.5,-1.567 -3.5,-3.5 0,-1.933 1.567,-3.5 3.5,-3.5 1.933,0 3.5,1.567 3.5,3.5 z"
       stroke="#00000000"
       id="path911"
       inkscape:connector-curvature="0"
       style="fill:#c4c5c2" />
    <path
       d="m 49.642,45.638 c 0,1.933 -1.567,3.5 -3.5,3.5 -1.933,0 -3.5,-1.567 -3.5,-3.5 0,-1.933 1.567,-3.5 3.5,-3.5 1.933,0 3.5,1.567 3.5,3.5 z"
       stroke="#00000000"
       id="path913"
       inkscape:connector-curvature="0"
       style="fill:none" />
    <path
       d="m 35.642,45.638 c 0,1.933 -1.567,3.5 -3.5,3.5 -1.933,0 -3.5,-1.567 -3.5,-3.5 0,-1.933 1.567,-3.5 3.5,-3.5 1.933,0 3.5,1.567 3.5,3.5 z"
       stroke="#00000000"
       id="path915"
       inkscape:connector-curvature="0"
       style="fill:#c4c5c2" />
    <path
       d="m 35.642,45.638 c 0,1.933 -1.567,3.5 -3.5,3.5 -1.933,0 -3.5,-1.567 -3.5,-3.5 0,-1.933 1.567,-3.5 3.5,-3.5 1.933,0 3.5,1.567 3.5,3.5 z"
       stroke="#00000000"
       id="path917"
       inkscape:connector-curvature="0"
       style="fill:none" />
    <path
       d="m 38.112,42.167 c -3.579,0 -6.469,2.921 -6.469,6.5 0,2.371 1.349,4.338 3.25,5.469 h 6.469 c 1.901,-1.131 3.25,-3.129 3.25,-5.5 0,-3.579 -2.921,-6.469 -6.5,-6.469 z"
       stroke="#00000000"
       id="path919"
       inkscape:connector-curvature="0"
       style="fill:#c4c5c2" />
    <path
       d="m 38.143,42.136 c -3.588,0 -6.5,2.912 -6.5,6.5 0,2.376 1.345,4.366 3.25,5.5 h 6.5 c 1.905,-1.134 3.25,-3.124 3.25,-5.5 0,-3.588 -2.912,-6.5 -6.5,-6.5 z"
       stroke="#00000000"
       id="path921"
       inkscape:connector-curvature="0"
       style="fill:none" />
    <path
       d="m 32.643,51.136 c 0,1.657 -1.343,3 -3,3 -1.657,0 -3,-1.343 -3,-3 0,-1.657 1.343,-3 3,-3 1.657,0 3,1.343 3,3 z"
       stroke="#00000000"
       id="path923"
       inkscape:connector-curvature="0"
       style="fill:none" />
    <path
       d="m 51.599,45.802 c -0.002,2.685 -3.269,3.714 -3.269,3.714 0,0 2.349,-1.626 2.337,-3.705 0,0 0.932,-0.009 0.932,-0.009 z"
       stroke="#00000000"
       id="path925"
       inkscape:connector-curvature="0"
       style="fill:#888a85" />
    <path
       d="m 46.643,50.137 c 0,2.209 -1.791,4 -4,4 -2.209,0 -4,-1.791 -4,-4 0,-2.209 1.791,-4 4,-4 2.209,0 4,1.791 4,4 z"
       stroke="#00000000"
       id="path927"
       inkscape:connector-curvature="0"
       style="fill:#c4c5c2" />
    <path
       d="m 46.643,50.137 c 0,2.209 -1.791,4 -4,4 -2.209,0 -4,-1.791 -4,-4 0,-2.209 1.791,-4 4,-4 2.209,0 4,1.791 4,4 z"
       stroke="#00000000"
       id="path929"
       inkscape:connector-curvature="0"
       style="fill:none" />
    <path
       d="m 46.633,25.65 -2.375,6.687 c 0.774,-0.123 1.566,-0.187 2.375,-0.187 0.809,0 1.601,0.064 2.375,0.188 z m -15.187,6.281 3.031,6.438 c 0.935,-1.29 2.085,-2.44 3.375,-3.375 z m 30.406,0 -6.438,3.063 c 1.29,0.935 2.44,2.085 3.375,3.375 z m -30.031,12.813 -6.688,2.375 6.688,2.375 C 31.7,48.729 31.633,47.948 31.633,47.15 c 0,-0.82 0.061,-1.623 0.188,-2.406 z m 29.625,0.031 c 0.123,0.774 0.187,1.566 0.187,2.375 0,0.809 -0.064,1.601 -0.188,2.375 l 6.688,-2.375 z m -26.969,11.156 -3.031,6.406 6.406,-3.031 c -1.29,-0.935 -2.44,-2.085 -3.375,-3.375 z m 24.312,0 c -0.926,1.278 -2.069,2.414 -3.344,3.344 l 6.406,3.063 -3.063,-6.406 z m -14.531,6.031 2.375,6.688 2.375,-6.688 c -0.774,0.124 -1.566,0.188 -2.375,0.188 -0.809,0 -1.601,-0.064 -2.375,-0.188 z"
       id="path931"
       inkscape:connector-curvature="0"
       style="fill:#fce94f;stroke:#fcaf3e;stroke-width:0.73732901;stroke-linecap:square;stroke-linejoin:miter" />
    <path
       d="m 54.034,37.054 c 5.568,4.082 6.773,11.906 2.691,17.474 -4.082,5.568 -11.906,6.773 -17.474,2.691 -5.568,-4.082 -6.773,-11.906 -2.691,-17.474 4.082,-5.568 11.906,-6.773 17.474,-2.691 z"
       id="path935"
       inkscape:connector-curvature="0"
       style="fill:#ffee54;stroke:#fcaf3e;stroke-width:1;stroke-linecap:square;stroke-linejoin:miter" />
    <path
       d="m 58.462,45.543 c 1.137,6.568 -3.234,12.606 -9.762,13.486 -6.528,0.88 -12.742,-3.731 -13.879,-10.299 -1.137,-6.568 3.234,-12.606 9.762,-13.486 6.528,-0.88 12.742,3.731 13.879,10.299 z"
       stroke="#00000000"
       id="path937"
       inkscape:connector-curvature="0"
       style="fill:none" />
    <path
       d="m 54.143,45.636 c -2.271,0 -4.11,1.55 -4.719,3.625 -0.693,-0.364 -1.445,-0.625 -2.281,-0.625 -2.76,0 -5,2.24 -5,5 0,0.579 0.163,1.108 0.344,1.625 -1.373,0.771 -2.344,2.189 -2.344,3.875 0,2.484 2.016,4.5 4.5,4.5 0.177,0 18.823,0 19,0 2.484,0 4.5,-2.016 4.5,-4.5 0,-1.686 -0.97,-3.104 -2.344,-3.875 0.181,-0.517 0.344,-1.046 0.344,-1.625 0,-2.76 -2.24,-5 -5,-5 -0.837,0 -1.588,0.261 -2.281,0.625 -0.609,-2.075 -2.448,-3.625 -4.719,-3.625 z"
       id="path941"
       inkscape:connector-curvature="0"
       style="fill:#c4c5c2;stroke:#888a85;stroke-width:1;stroke-linecap:butt;stroke-linejoin:miter" />
    <path
       d="m 54.143,46.136 c -2.19,0 -3.724,1.336 -4.396,3.844 -0.668,-0.344 -1.548,-0.833 -2.354,-0.833 -2.717,0 -4.755,1.939 -4.755,4.546 0,0.547 0.267,1.333 0.442,1.822 -1.324,0.728 -2.437,1.89 -2.437,3.373 0,2.346 1.546,4.25 4.339,4.25 0.171,0 18.151,0 18.321,0 2.771,0 4.339,-1.904 4.339,-4.25 0,-1.592 -1.112,-2.667 -2.437,-3.395 0.175,-0.489 0.464,-1.253 0.464,-1.8 0,-2.607 -2.116,-4.568 -4.777,-4.568 -0.807,0 -1.642,0.49 -2.31,0.833 -0.648,-2.422 -2.249,-3.822 -4.439,-3.822 z"
       stroke="#00000000"
       id="path943"
       inkscape:connector-curvature="0"
       style="fill:none" />
    <path
       d="m 57.642,50.638 c 0,1.933 -1.567,3.5 -3.5,3.5 -1.933,0 -3.5,-1.567 -3.5,-3.5 0,-1.933 1.567,-3.5 3.5,-3.5 1.933,0 3.5,1.567 3.5,3.5 z"
       stroke="#00000000"
       id="path945"
       inkscape:connector-curvature="0"
       style="fill:#c4c5c2" />
    <path
       d="m 57.642,50.638 c 0,1.933 -1.567,3.5 -3.5,3.5 -1.933,0 -3.5,-1.567 -3.5,-3.5 0,-1.933 1.567,-3.5 3.5,-3.5 1.933,0 3.5,1.567 3.5,3.5 z"
       stroke="#00000000"
       id="path947"
       inkscape:connector-curvature="0"
       style="fill:none" />
    <path
       d="m 44.643,53.136 h 20 v 9 h -20 z"
       stroke="#00000000"
       id="path949"
       inkscape:connector-curvature="0"
       style="fill:#c4c5c2" />
    <path
       d="m 47.643,59.136 c 0,1.657 -1.343,3 -3,3 -1.657,0 -3,-1.343 -3,-3 0,-1.657 1.343,-3 3,-3 1.657,0 3,1.343 3,3 z"
       stroke="#00000000"
       id="path951"
       inkscape:connector-curvature="0"
       style="fill:#c4c5c2" />
    <path
       d="m 64.642,53.637 c 0,1.933 -1.567,3.5 -3.5,3.5 -1.933,0 -3.5,-1.567 -3.5,-3.5 0,-1.933 1.567,-3.5 3.5,-3.5 1.933,0 3.5,1.567 3.5,3.5 z"
       stroke="#00000000"
       id="path953"
       inkscape:connector-curvature="0"
       style="fill:#c4c5c2" />
    <path
       d="m 64.642,53.638 c 0,1.933 -1.567,3.5 -3.5,3.5 -1.933,0 -3.5,-1.567 -3.5,-3.5 0,-1.933 1.567,-3.5 3.5,-3.5 1.933,0 3.5,1.567 3.5,3.5 z"
       stroke="#00000000"
       id="path955"
       inkscape:connector-curvature="0"
       style="fill:none" />
    <path
       d="m 50.642,53.638 c 0,1.933 -1.567,3.5 -3.5,3.5 -1.933,0 -3.5,-1.567 -3.5,-3.5 0,-1.933 1.567,-3.5 3.5,-3.5 1.933,0 3.5,1.567 3.5,3.5 z"
       stroke="#00000000"
       id="path957"
       inkscape:connector-curvature="0"
       style="fill:#c4c5c2" />
    <path
       d="m 50.642,53.638 c 0,1.933 -1.567,3.5 -3.5,3.5 -1.933,0 -3.5,-1.567 -3.5,-3.5 0,-1.933 1.567,-3.5 3.5,-3.5 1.933,0 3.5,1.567 3.5,3.5 z"
       stroke="#00000000"
       id="path959"
       inkscape:connector-curvature="0"
       style="fill:none" />
    <path
       d="m 53.112,50.167 c -3.579,0 -6.469,2.921 -6.469,6.5 0,2.371 1.349,4.338 3.25,5.469 h 6.469 c 1.901,-1.131 3.25,-3.129 3.25,-5.5 0,-3.579 -2.921,-6.469 -6.5,-6.469 z"
       stroke="#00000000"
       id="path961"
       inkscape:connector-curvature="0"
       style="fill:#c4c5c2" />
    <path
       d="m 53.143,50.136 c -3.588,0 -6.5,2.912 -6.5,6.5 0,2.376 1.345,4.366 3.25,5.5 h 6.5 c 1.905,-1.134 3.25,-3.124 3.25,-5.5 0,-3.588 -2.912,-6.5 -6.5,-6.5 z"
       stroke="#00000000"
       id="path963"
       inkscape:connector-curvature="0"
       style="fill:none" />
    <path
       d="m 47.643,59.136 c 0,1.657 -1.343,3 -3,3 -1.657,0 -3,-1.343 -3,-3 0,-1.657 1.343,-3 3,-3 1.657,0 3,1.343 3,3 z"
       stroke="#00000000"
       id="path965"
       inkscape:connector-curvature="0"
       style="fill:none" />
    <path
       d="m 66.599,53.802 c -0.002,2.685 -3.269,3.714 -3.269,3.714 0,0 2.349,-1.626 2.337,-3.705 0,0 0.932,-0.009 0.932,-0.009 z"
       stroke="#00000000"
       id="path967"
       inkscape:connector-curvature="0"
       style="fill:#888a85" />
    <path
       d="m 61.643,58.137 c 0,2.209 -1.791,4 -4,4 -2.209,0 -4,-1.791 -4,-4 0,-2.209 1.791,-4 4,-4 2.209,0 4,1.791 4,4 z"
       stroke="#00000000"
       id="path969"
       inkscape:connector-curvature="0"
       style="fill:#c4c5c2" />
    <path
       d="m 61.643,58.137 c 0,2.209 -1.791,4 -4,4 -2.209,0 -4,-1.791 -4,-4 0,-2.209 1.791,-4 4,-4 2.209,0 4,1.791 4,4 z"
       stroke="#00000000"
       id="path971"
       inkscape:connector-curvature="0"
       style="fill:none" />
  </g>
</svg>
